<svg width="512" height="512" viewBox="0 0 512 512" fill="none" xmlns="http://www.w3.org/2000/svg">
<rect width="512" height="512" fill="#EEEEEE"/>
<path d="M362.344 275.004C361.218 245.061 356.715 215.117 356.715 185.174C356.715 160.775 361.218 135.268 352.212 111.978C352.212 109.76 353.338 106.433 353.338 104.215C355.59 92.0161 316.188 98.6702 310.559 109.76C307.182 113.087 304.93 116.414 306.056 120.851C306.056 121.96 307.182 123.069 307.182 124.178C299.301 159.666 289.17 195.155 277.912 229.534C273.409 242.843 267.78 256.151 263.277 269.459C256.522 257.26 249.768 245.061 244.139 231.752C228.378 192.937 214.869 154.121 195.731 117.523C197.983 100.888 159.707 101.997 151.826 117.523C142.82 136.377 143.946 155.23 147.323 176.301C150.701 199.591 151.826 221.771 151.826 245.061C151.826 289.421 156.329 333.782 156.329 378.143C151.826 382.579 150.701 388.124 155.204 393.669C157.455 395.887 159.707 398.105 161.958 400.323C172.09 408.086 201.36 401.432 201.36 385.906C201.36 339.327 197.983 293.857 196.857 247.279C196.857 242.843 196.857 238.407 196.857 233.97C197.983 235.079 197.983 237.298 199.108 238.407C205.863 256.151 213.743 273.895 223.875 290.53C234.007 307.166 238.51 324.91 244.139 342.654C241.887 344.872 240.762 348.199 241.887 350.417C241.887 352.635 243.013 353.744 245.265 354.853C252.019 361.508 266.654 358.181 273.409 354.853C276.786 353.744 280.163 351.526 282.415 350.417C285.792 348.199 292.547 342.654 290.295 337.109C290.295 336 289.17 334.891 289.17 333.782C294.798 319.365 297.05 304.948 300.427 289.421C303.804 273.895 309.433 258.369 315.062 242.843C316.188 249.497 316.188 257.26 317.314 263.914C319.565 292.748 317.314 320.474 317.314 349.308C317.314 359.29 318.439 367.053 319.565 377.034C320.691 380.361 324.068 396.996 322.942 398.105C316.188 404.759 318.439 412.522 327.446 413.631C337.577 415.85 351.087 412.522 358.967 405.868C372.476 393.669 365.722 373.707 363.47 358.181C356.715 331.564 362.344 301.621 362.344 275.004Z" fill="black"/>
</svg>
